# Blender v2.76 (sub 0) OBJ File: 'tray.blend'
# www.blender.org
mtllib tray.mtl
o Cube_Cube.002
v -1.250000 0.250000 0.749642
v -1.250000 0.750000 0.749642
v -1.750000 0.250000 0.749642
v -1.750000 0.750000 0.749642
v -1.250000 0.250000 -0.750358
v -1.250000 0.750000 -0.750358
v -1.750000 0.250000 -0.750358
v -1.750000 0.750000 -0.750358
v 1.750000 0.250000 0.750000
v 1.750000 0.750000 0.750000
v 1.250000 0.250000 0.750000
v 1.250000 0.750000 0.750000
v 1.750000 0.250000 -0.750000
v 1.750000 0.750000 -0.750000
v 1.250000 0.250000 -0.750000
v 1.250000 0.750000 -0.750000
v -1.750000 0.250000 1.250000
v -1.750000 0.750000 1.250000
v -1.750000 0.250000 0.750000
v -1.750000 0.750000 0.750000
v 1.750000 0.250000 1.250000
v 1.750000 0.750000 1.250000
v 1.750000 0.250000 0.750000
v 1.750000 0.750000 0.750000
v -1.750000 0.250000 -0.750000
v -1.750000 0.750000 -0.750000
v -1.750000 0.250000 -1.250000
v -1.750000 0.750000 -1.250000
v 1.750000 0.250000 -0.750000
v 1.750000 0.750000 -0.750000
v 1.750000 0.250000 -1.250000
v 1.750000 0.750000 -1.250000
v -1.250000 0.250000 0.750000
v -1.250000 0.450000 0.750000
v -1.250000 0.250000 -0.750000
v -1.250000 0.450000 -0.750000
v 1.250000 0.250000 0.750000
v 1.250000 0.450000 0.750000
v 1.250000 0.250000 -0.750000
v 1.250000 0.450000 -0.750000
vn -1.000000 0.000000 0.000000
vn 0.000000 0.000000 -1.000000
vn 1.000000 0.000000 0.000000
vn 0.000000 0.000000 1.000000
vn 0.000000 -1.000000 0.000000
vn 0.000000 1.000000 0.000000
usemtl Material.005
s off
f 28//1 27//1 25//1
f 32//2 31//2 27//2
f 30//3 29//3 31//3
f 26//4 25//4 29//4
f 27//5 31//5 29//5
f 32//6 28//6 26//6
f 26//1 28//1 25//1
f 28//2 32//2 27//2
f 32//3 30//3 31//3
f 30//4 26//4 29//4
f 25//5 27//5 29//5
f 30//6 32//6 26//6
usemtl Material.002
f 4//4 3//4 1//4
f 8//1 7//1 3//1
f 6//2 5//2 7//2
f 2//3 1//3 5//3
f 3//5 7//5 5//5
f 8//6 4//6 2//6
f 2//4 4//4 1//4
f 4//1 8//1 3//1
f 8//2 6//2 7//2
f 6//3 2//3 5//3
f 1//5 3//5 5//5
f 6//6 8//6 2//6
usemtl Material.003
f 12//4 11//4 9//4
f 16//1 15//1 11//1
f 14//2 13//2 15//2
f 10//3 9//3 13//3
f 11//5 15//5 13//5
f 16//6 12//6 10//6
f 10//4 12//4 9//4
f 12//1 16//1 11//1
f 16//2 14//2 15//2
f 14//3 10//3 13//3
f 9//5 11//5 13//5
f 14//6 16//6 10//6
usemtl Material.004
f 20//1 19//1 17//1
f 24//2 23//2 19//2
f 22//3 21//3 23//3
f 18//4 17//4 21//4
f 19//5 23//5 21//5
f 24//6 20//6 18//6
f 18//1 20//1 17//1
f 20//2 24//2 19//2
f 24//3 22//3 23//3
f 22//4 18//4 21//4
f 17//5 19//5 21//5
f 22//6 24//6 18//6
usemtl Material.001
f 36//1 35//1 33//1
f 40//2 39//2 35//2
f 38//3 37//3 39//3
f 34//4 33//4 37//4
f 35//5 39//5 37//5
f 40//6 36//6 34//6
f 34//1 36//1 33//1
f 36//2 40//2 35//2
f 40//3 38//3 39//3
f 38//4 34//4 37//4
f 33//5 35//5 37//5
f 38//6 40//6 34//6
